# Blender v2.76 (sub 0) OBJ File: 'TreeTap.blend'
# www.blender.org
mtllib models/block/treetap_bucket.mtl
g bucket
v 0.300000 0.093309 0.405982
v 0.300000 0.487232 0.475441
v 0.300000 0.162768 0.012059
v 0.300000 0.556691 0.081518
v 0.700000 0.093309 0.405982
v 0.700000 0.487232 0.475441
v 0.700000 0.162768 0.012059
v 0.700000 0.556691 0.081518
v 0.360000 0.497651 0.416353
v 0.360000 0.546272 0.140607
v 0.640000 0.546272 0.140607
v 0.640000 0.497651 0.416353
v 0.360000 0.128348 0.351235
v 0.360000 0.176969 0.075489
v 0.640000 0.176969 0.075489
v 0.640000 0.128348 0.351235
vt 0.375000 0.375000
vt 0.000000 0.375000
vt 0.000000 0.000000
vt 0.375000 0.000000
vt 0.375000 0.750000
vt 0.000000 0.750000
vt 0.437500 0.062500
vt 0.437500 0.312500
vt 0.312500 0.375000
vt 0.062500 0.375000
vt 0.062500 0.000000
vt 0.312500 0.000000
vt 0.750000 -0.000000
vt 0.687500 0.062500
vt 0.750000 0.375000
vt 0.687500 0.312500
vn -1.000000 0.000000 0.000000
vn 0.000000 0.173600 -0.984800
vn 1.000000 0.000000 0.000000
vn 0.000000 -0.173600 0.984800
vn 0.000000 -0.984800 -0.173600
vn 0.000000 0.984800 0.173600
usemtl Material
s off
f 2/1/1 4/2/1 3/3/1 1/4/1
f 4/1/2 8/2/2 7/3/2 3/4/2
f 8/1/3 6/2/3 5/3/3 7/4/3
f 6/1/4 2/2/4 1/3/4 5/4/4
f 1/2/5 3/1/5 7/5/5 5/6/5
f 4/1/6 2/4/6 9/7/6 10/8/6
f 12/9/1 11/10/1 15/11/1 16/12/1
f 2/4/6 6/13/6 12/14/6 9/7/6
f 8/15/6 4/1/6 10/8/6 11/16/6
f 6/13/6 8/15/6 11/16/6 12/14/6
f 16/2/6 15/1/6 14/5/6 13/6/6
f 10/9/3 9/10/3 13/11/3 14/12/3
f 9/9/2 12/10/2 16/11/2 13/12/2
f 11/9/4 10/10/4 14/11/4 15/12/4
